# 3ds Max Wavefront OBJ Exporter v0.97b - (c)2007 guruware
# File Created: 28.10.2015 20:30:30

mtllib keatonmask.mtl

#
# object node_0262FB3D
#

v  -3.7283 -8.2047 -1.0315
v  -2.5433 -4.8189 2.2638
v  -6.3346 -3.7953 -1.1102
v  -1.7205 -6.5000 4.1850
v  -7.5551 -6.1378 -6.8583
v  0.0000 -9.2992 2.4173
v  -4.1496 -9.5787 -7.2323
v  0.0000 -11.2953 -2.7638
v  -5.3465 -0.0787 -0.0394
v  -0.7087 -5.9606 6.0433
v  -1.0512 -1.8780 2.0945
v  -3.9173 -9.0630 -7.1220
v  -9.0827 -1.8701 -5.7047
v  -7.1339 -5.8110 -6.7835
v  3.7283 -8.2047 -1.0315
v  0.0000 -6.5551 6.3150
v  1.7205 -6.5000 4.1850
v  -8.8150 -0.3976 -5.0394
v  -7.1220 1.4921 -4.0827
v  0.0000 -5.8031 6.8031
v  0.0000 -1.0866 2.3976
v  0.0000 -10.9409 -6.9685
v  0.0000 -11.5630 -7.0984
v  -8.5748 -1.7874 -5.6811
v  2.5433 -4.8189 2.2638
v  4.1496 -9.5787 -7.2323
v  6.3346 -3.7953 -1.1102
v  7.5551 -6.1378 -6.8583
v  -8.3189 -0.4016 -5.0394
v  -6.7244 1.3780 -4.1063
v  1.0512 -1.8780 2.0945
v  0.7087 -5.9606 6.0433
v  9.0827 -1.8701 -5.7047
v  3.9173 -9.0630 -7.1220
v  7.1339 -5.8110 -6.7835
v  5.3465 -0.0787 -0.0394
v  8.5748 -1.7874 -5.6811
v  8.8150 -0.3976 -5.0394
v  8.3189 -0.4016 -5.0394
v  7.1220 1.4921 -4.0827
v  6.7244 1.3780 -4.1063
v  -3.0551 8.9370 -4.5000
v  -7.4016 16.3346 -1.2480
v  -4.1614 11.8307 -1.8661
v  -4.2244 8.0079 -5.5000
v  -2.4961 9.1260 -2.6575
v  -4.1260 7.8661 -5.0039
v  -2.8386 8.5236 -2.7717
v  -3.2953 8.5472 -4.1063
v  -5.0512 11.4213 -0.2638
v  -7.8346 15.1063 -1.5591
v  -2.1693 8.2362 -0.7795
v  -4.8622 6.9173 -4.5472
v  -6.4567 10.2953 -1.2008
v  -7.8465 12.1850 -2.2795
v  -2.6969 6.5039 0.2598
v  -5.2323 6.7323 -4.8543
v  -5.3346 5.8780 -3.2087
v  -4.7402 5.4803 -1.3031
v  -5.9961 5.5551 -3.2559
v  3.0551 8.9370 -4.5000
v  4.1614 11.8307 -1.8661
v  7.4016 16.3346 -1.2480
v  2.4961 9.1260 -2.6575
v  4.2244 8.0079 -5.5000
v  2.8386 8.5236 -2.7717
v  4.1260 7.8661 -5.0039
v  3.2953 8.5472 -4.1063
v  5.0512 11.4213 -0.2638
v  2.1693 8.2362 -0.7795
v  4.8622 6.9173 -4.5472
v  7.8346 15.1063 -1.5591
v  5.2323 6.7323 -4.8543
v  7.8465 12.1850 -2.2795
v  2.6969 6.5039 0.2598
v  5.3346 5.8780 -3.2087
v  6.4567 10.2953 -1.2008
v  5.9961 5.5551 -3.2559
v  4.7402 5.4803 -1.3031
v  0.0000 6.8307 0.6142
v  0.0000 8.6260 -0.5748
v  0.0000 9.5984 -2.5591
v  0.0000 9.0354 -2.6772
# 83 vertices

vn -0.6695 -0.3844 0.6357
vn -0.9290 -0.0335 0.3685
vn -0.8052 -0.4695 0.3623
vn -0.6072 -0.6562 0.4481
vn -0.6851 -0.7000 0.2016
vn -0.5186 -0.7979 0.3074
vn -0.5620 -0.7986 0.2152
vn -0.6697 -0.0357 0.7417
vn -0.8854 0.0883 0.4564
vn -0.3533 0.2315 0.9064
vn -0.7627 0.4155 0.4957
vn 0.0716 0.1775 -0.9815
vn -0.8513 -0.3973 0.3427
vn 0.0540 0.1561 -0.9863
vn -0.0243 0.2527 -0.9672
vn 0.5186 -0.7979 0.3074
vn -0.5943 -0.6576 0.4630
vn 0.6072 -0.6562 0.4481
vn 0.5943 -0.6576 0.4630
vn -0.6577 -0.5477 0.5171
vn -0.8220 0.0553 0.5667
vn -0.7560 0.4255 0.4973
vn -0.8681 -0.0646 0.4922
vn -0.6916 0.4713 0.5473
vn -0.5868 0.5527 0.5918
vn -0.6142 -0.4297 0.6619
vn 0.1143 0.1582 -0.9808
vn -0.4322 -0.9001 0.0556
vn 0.1283 0.2028 -0.9708
vn 0.0017 0.2648 -0.9643
vn -0.0253 0.4155 -0.9093
vn 0.9290 -0.0335 0.3685
vn 0.5620 -0.7986 0.2152
vn 0.6695 -0.3844 0.6357
vn 0.6851 -0.7000 0.2016
vn 0.8052 -0.4695 0.3623
vn -0.1283 0.2028 -0.9708
vn 0.4322 -0.9001 0.0556
vn 0.0036 0.4491 -0.8935
vn 0.0657 0.4165 -0.9067
vn 0.0033 0.4197 -0.9077
vn 0.5868 0.5527 0.5918
vn 0.6577 -0.5477 0.5171
vn 0.6142 -0.4297 0.6619
vn 0.7627 0.4155 0.4957
vn 0.8854 0.0883 0.4564
vn 0.6916 0.4713 0.5473
vn 0.8513 -0.3973 0.3427
vn -0.0716 0.1775 -0.9815
vn 0.0243 0.2527 -0.9672
vn -0.0540 0.1561 -0.9863
vn -0.1143 0.1582 -0.9808
vn 0.3533 0.2315 0.9064
vn 0.6697 -0.0357 0.7417
vn -0.0017 0.2648 -0.9643
vn 0.8681 -0.0646 0.4922
vn 0.0253 0.4155 -0.9093
vn 0.8220 0.0553 0.5667
vn -0.0033 0.4197 -0.9077
vn 0.7560 0.4255 0.4973
vn -0.0036 0.4491 -0.8935
vn -0.0657 0.4165 -0.9067
vn 0.7459 0.5812 -0.3253
vn 0.2787 0.5190 -0.8081
vn 0.7738 0.5620 -0.2924
vn 0.7411 -0.5923 -0.3163
vn 0.8658 -0.4513 -0.2164
vn 0.7376 -0.6476 -0.1912
vn 0.6920 -0.6777 -0.2488
vn 0.7262 0.4513 0.5186
vn -0.3118 0.3351 -0.8891
vn -0.4784 -0.0533 0.8765
vn 0.8596 0.5032 0.0889
vn 0.6769 0.5297 0.5112
vn 0.6655 -0.6724 -0.3241
vn -0.5070 -0.0813 0.8581
vn -0.5043 0.2087 -0.8379
vn -0.7320 -0.1603 0.6622
vn 0.5039 0.3264 0.7997
vn -0.4732 -0.1339 0.8707
vn 0.6372 -0.6836 -0.3559
vn 0.6260 -0.7073 -0.3283
vn -0.6084 0.0811 -0.7895
vn -0.5275 -0.2056 0.8243
vn -0.8051 -0.3001 0.5116
vn -0.8078 -0.2988 0.5081
vn 0.4255 -0.8137 -0.3960
vn -0.8405 -0.1583 -0.5182
vn -0.7459 0.5812 -0.3253
vn -0.7738 0.5620 -0.2924
vn -0.2787 0.5190 -0.8081
vn -0.8658 -0.4513 -0.2164
vn -0.7411 -0.5923 -0.3163
vn -0.6920 -0.6777 -0.2488
vn -0.7376 -0.6476 -0.1912
vn -0.7262 0.4513 0.5186
vn -0.8596 0.5032 0.0889
vn -0.6769 0.5297 0.5112
vn -0.6655 -0.6724 -0.3241
vn 0.3118 0.3351 -0.8891
vn -0.6372 -0.6836 -0.3559
vn 0.5043 0.2087 -0.8379
vn 0.6084 0.0811 -0.7895
vn 0.4784 -0.0533 0.8765
vn -0.5039 0.3264 0.7997
vn -0.6260 -0.7073 -0.3283
vn 0.7320 -0.1603 0.6622
vn 0.8405 -0.1583 -0.5182
vn 0.8051 -0.3001 0.5116
vn 0.4732 -0.1339 0.8707
vn 0.5070 -0.0813 0.8581
vn -0.4255 -0.8137 -0.3960
vn 0.5275 -0.2056 0.8243
vn 0.8078 -0.2988 0.5081
vn -0.1530 0.2172 0.9641
vn -0.1738 0.5450 0.8202
vn 0.1530 0.2172 0.9641
vn -0.1751 0.5436 0.8208
vn 0.1738 0.5450 0.8202
vn 0.1751 0.5436 0.8208
vn -0.3641 0.1304 0.9222
vn -0.4009 0.1201 0.9082
vn -0.6619 0.2341 0.7121
vn -0.1989 0.8718 0.4477
vn 0.3641 0.1304 0.9222
vn 0.4009 0.1201 0.9082
vn 0.6619 0.2341 0.7121
vn 0.1989 0.8718 0.4477
vn -0.8666 0.1986 0.4577
vn -0.8328 0.1209 0.5402
vn -0.1841 0.8826 0.4325
vn -0.0003 0.2053 -0.9787
vn -0.0010 0.1868 -0.9824
vn 0.1841 0.8826 0.4325
vn 0.0003 0.2053 -0.9787
vn 0.8666 0.1986 0.4577
vn -0.0009 0.1996 -0.9799
vn -0.0299 0.2044 -0.9784
vn 0.0010 0.1868 -0.9824
vn 0.8328 0.1209 0.5402
vn 0.0009 0.1996 -0.9799
vn 0.0299 0.2044 -0.9784
# 142 vertex normals

vt 0.3100 0.1400 0.0000
vt 0.5300 0.2300 0.0000
vt 0.2200 0.2300 0.0000
vt 0.7500 0.1600 0.0000
vt 0.0300 0.1400 0.0000
vt 0.6600 0.0600 0.0000
vt 0.0300 0.0800 0.0000
vt 0.2200 0.0200 0.0000
vt 0.2500 0.3600 0.0000
vt 0.9100 0.2300 0.0000
vt 0.4700 0.3600 0.0000
vt 0.0300 0.2300 0.0000
vt 0.9700 0.1900 0.0000
vt 0.0300 0.3100 0.0000
vt 0.0300 0.3600 0.0000
vt 0.9700 0.2700 0.0000
vt 0.4700 0.4200 0.0000
vt 0.0300 0.0200 0.0000
vt 0.9400 0.5900 0.0000
vt 0.9100 0.9800 0.0000
vt 0.9100 0.7500 0.0000
vt 0.9700 0.5800 0.0000
vt 0.9100 0.5900 0.0000
vt 0.9400 0.9400 0.0000
vt 0.9100 0.5800 0.0000
vt 0.9700 0.7300 0.0000
vt 0.9700 0.8300 0.0000
vt 0.9100 0.5300 0.0000
vt 0.9700 0.5300 0.0000
vt 0.6600 0.9500 0.0000
vt 0.4100 0.9500 0.0000
vt 0.8400 0.5600 0.0000
vt 0.5000 0.9700 0.0000
vt 0.6600 0.9700 0.0000
vt 0.7500 0.4700 0.0000
vt 0.0600 0.5300 0.0000
vt 0.0900 0.9400 0.0000
vt 0.5000 0.9800 0.0000
vt 0.0300 0.5800 0.0000
vt 0.0300 0.9400 0.0000
vt 0.6600 0.9800 0.0000
# 41 texture coords

g node_0262FB3D
usemtl material_019C1610
s off
f 1/1/1 2/2/1 3/3/1 
f 1/1/2 4/4/2 2/2/2 
f 1/1/3 3/3/3 5/5/3 
f 1/1/4 6/6/4 4/4/4 
f 1/1/5 5/5/5 7/7/5 
f 1/1/6 8/8/6 6/6/6 
f 1/1/7 7/7/7 8/8/7 
f 2/2/8 9/9/8 3/3/8 
f 2/2/9 4/4/9 10/10/9 
f 2/2/10 11/11/10 9/9/10 
f 2/2/11 10/10/11 11/11/11 
f 5/5/12 12/7/12 7/7/12 
f 5/5/13 3/3/13 13/12/13 
f 5/5/14 14/5/14 12/7/14 
f 5/5/15 13/12/15 14/5/15 
f 6/6/16 8/8/16 15/1/16 
f 6/6/17 16/13/17 4/4/17 
f 6/6/18 15/1/18 17/4/18 
f 6/6/19 17/4/19 16/13/19 
f 4/4/20 16/13/20 10/10/20 
f 9/9/21 18/14/21 3/3/21 
f 9/9/22 19/15/22 18/14/22 
f 3/3/23 18/14/23 13/12/23 
f 11/11/24 10/10/24 20/16/24 
f 11/11/25 20/16/25 21/17/25 
f 10/10/26 16/13/26 20/16/26 
f 7/7/27 12/7/27 22/18/27 
f 7/7/28 23/18/28 8/8/28 
f 7/7/29 22/18/29 23/18/29 
f 14/5/30 13/12/30 24/12/30 
f 13/12/31 18/14/31 24/12/31 
f 15/1/32 25/2/32 17/4/32 
f 15/1/33 8/8/33 26/7/33 
f 15/1/34 27/3/34 25/2/34 
f 15/1/35 26/7/35 28/5/35 
f 15/1/36 28/5/36 27/3/36 
f 23/18/37 22/18/37 26/7/37 
f 23/18/38 26/7/38 8/8/38 
f 19/15/39 29/14/39 18/14/39 
f 19/15/40 30/15/40 29/14/40 
f 29/14/41 24/12/41 18/14/41 
f 21/17/42 20/16/42 31/11/42 
f 16/13/43 17/4/43 32/10/43 
f 16/13/44 32/10/44 20/16/44 
f 32/10/45 25/2/45 31/11/45 
f 32/10/46 17/4/46 25/2/46 
f 32/10/47 31/11/47 20/16/47 
f 28/5/48 33/12/48 27/3/48 
f 28/5/49 26/7/49 34/7/49 
f 28/5/50 35/5/50 33/12/50 
f 28/5/51 34/7/51 35/5/51 
f 34/7/52 26/7/52 22/18/52 
f 25/2/53 36/9/53 31/11/53 
f 25/2/54 27/3/54 36/9/54 
f 33/12/55 35/5/55 37/12/55 
f 33/12/56 38/14/56 27/3/56 
f 33/12/57 37/12/57 38/14/57 
f 27/3/58 38/14/58 36/9/58 
f 37/12/59 39/14/59 38/14/59 
f 36/9/60 38/14/60 40/15/60 
f 38/14/61 39/14/61 40/15/61 
f 39/14/62 41/15/62 40/15/62 
f 42/19/63 43/20/63 44/21/63 
f 42/19/64 45/22/64 43/20/64 
f 42/19/65 44/21/65 46/23/65 
f 42/19/66 47/22/66 45/22/66 
f 42/19/67 46/23/67 48/23/67 
f 42/19/68 49/19/68 47/22/68 
f 42/19/69 48/23/69 49/19/69 
f 43/20/70 50/21/70 44/21/70 
f 43/20/71 45/22/71 51/24/71 
f 43/20/72 51/24/72 50/21/72 
f 46/23/73 44/21/73 52/25/73 
f 44/21/74 50/21/74 52/25/74 
f 47/22/75 53/22/75 45/22/75 
f 51/24/76 54/26/76 50/21/76 
f 51/24/77 45/22/77 55/27/77 
f 51/24/78 55/27/78 54/26/78 
f 52/25/79 50/21/79 56/28/79 
f 50/21/80 54/26/80 56/28/80 
f 53/22/81 57/22/81 45/22/81 
f 53/22/82 58/22/82 57/22/82 
f 45/22/83 57/22/83 55/27/83 
f 54/26/84 59/29/84 56/28/84 
f 54/26/85 55/27/85 60/22/85 
f 54/26/86 60/22/86 59/29/86 
f 60/22/87 57/22/87 58/22/87 
f 60/22/88 55/27/88 57/22/88 
f 61/19/89 62/21/89 63/20/89 
f 61/19/90 64/23/90 62/21/90 
f 61/19/91 63/20/91 65/22/91 
f 61/19/92 66/23/92 64/23/92 
f 61/19/93 65/22/93 67/22/93 
f 61/19/94 68/19/94 66/23/94 
f 61/19/95 67/22/95 68/19/95 
f 62/21/96 69/21/96 63/20/96 
f 62/21/97 64/23/97 70/25/97 
f 62/21/98 70/25/98 69/21/98 
f 65/22/99 71/22/99 67/22/99 
f 65/22/100 63/20/100 72/24/100 
f 65/22/101 73/22/101 71/22/101 
f 65/22/102 72/24/102 74/27/102 
f 65/22/103 74/27/103 73/22/103 
f 63/20/104 69/21/104 72/24/104 
f 70/25/105 75/28/105 69/21/105 
f 71/22/106 73/22/106 76/22/106 
f 74/27/107 72/24/107 77/26/107 
f 74/27/108 78/22/108 73/22/108 
f 74/27/109 77/26/109 78/22/109 
f 69/21/110 75/28/110 77/26/110 
f 69/21/111 77/26/111 72/24/111 
f 73/22/112 78/22/112 76/22/112 
f 75/28/113 79/29/113 77/26/113 
f 77/26/114 79/29/114 78/22/114 
f 80/30/115 56/31/115 21/32/115 
f 80/30/116 52/33/116 56/31/116 
f 80/30/117 21/32/117 75/31/117 
f 80/30/118 81/34/118 52/33/118 
f 80/30/119 75/31/119 70/33/119 
f 80/30/120 70/33/120 81/34/120 
f 56/31/121 11/35/121 21/32/121 
f 56/31/122 9/36/122 11/35/122 
f 56/31/123 59/37/123 9/36/123 
f 52/33/124 81/34/124 46/38/124 
f 75/31/125 21/32/125 31/35/125 
f 75/31/126 31/35/126 36/36/126 
f 75/31/127 36/36/127 79/37/127 
f 70/33/128 64/38/128 81/34/128 
f 59/37/129 19/39/129 9/36/129 
f 59/37/130 60/40/130 19/39/130 
f 46/38/131 81/34/131 82/41/131 
f 46/38/132 82/41/132 83/41/132 
f 46/38/133 83/41/133 48/38/133 
f 82/41/134 81/34/134 64/38/134 
f 82/41/135 64/38/135 83/41/135 
f 36/36/136 40/39/136 79/37/136 
f 60/40/137 30/39/137 19/39/137 
f 60/40/138 58/40/138 30/39/138 
f 64/38/139 66/38/139 83/41/139 
f 40/39/140 78/40/140 79/37/140 
f 40/39/141 41/39/141 78/40/141 
f 41/39/142 76/40/142 78/40/142 
# 0 polygons - 142 triangles

#
# object node_017AD52B
#

v  -5.3622 10.5551 -2.4646
v  -3.2953 8.5472 -4.1063
v  -2.8386 8.5236 -2.7717
v  -4.1260 7.8661 -5.0039
v  -2.1929 7.8071 -1.0276
v  -4.8622 6.9173 -4.5472
v  -2.6732 6.1654 -0.0433
v  -5.3346 5.8780 -3.2087
v  -4.6496 5.1929 -1.5236
v  0.0000 8.1772 -0.8307
v  0.0000 9.0354 -2.6772
v  -5.0669 -0.0748 -0.3268
v  0.0000 6.4764 0.2953
v  -0.9016 -1.7795 1.6969
v  0.0000 -1.1654 1.9843
v  -6.7244 1.3780 -4.1063
v  2.8386 8.5236 -2.7717
v  0.0000 -5.5000 6.1575
v  2.6732 6.1654 -0.0433
v  0.9016 -1.7795 1.6969
v  -8.3189 -0.4016 -5.0394
v  -2.3150 -4.5669 1.8543
v  -6.0039 -3.5945 -1.3386
v  2.1929 7.8071 -1.0276
v  5.3622 10.5551 -2.4646
v  3.2953 8.5472 -4.1063
v  2.3150 -4.5669 1.8543
v  5.0669 -0.0748 -0.3268
v  -8.5748 -1.7874 -5.6811
v  0.0000 -8.8150 2.0039
v  -3.5354 -7.7795 -1.2677
v  4.1260 7.8661 -5.0039
v  4.6496 5.1929 -1.5236
v  -7.1339 -5.8110 -6.7835
v  3.5354 -7.7795 -1.2677
v  6.0039 -3.5945 -1.3386
v  4.8622 6.9173 -4.5472
v  6.7244 1.3780 -4.1063
v  5.3346 5.8780 -3.2087
v  -3.9173 -9.0630 -7.1220
v  0.0000 -10.7047 -2.9094
v  8.3189 -0.4016 -5.0394
v  7.1339 -5.8110 -6.7835
v  8.5748 -1.7874 -5.6811
v  0.0000 -10.9409 -6.9685
v  3.9173 -9.0630 -7.1220
# 46 vertices

vn -0.6011 -0.7758 0.1920
vn -0.1519 -0.7146 0.6828
vn -0.6310 -0.7713 -0.0833
vn 0.7293 -0.2617 0.6321
vn -0.0457 -0.5038 -0.8626
vn 0.9521 -0.0426 0.3030
vn 0.6161 -0.0560 -0.7857
vn 0.9331 0.0618 -0.3542
vn 0.1876 -0.8822 -0.4319
vn 0.1748 -0.8929 -0.4150
vn 0.6513 -0.2168 -0.7272
vn 0.1674 -0.5425 -0.8232
vn 0.3972 -0.1110 -0.9110
vn 0.1472 -0.2135 -0.9658
vn 0.3738 -0.1182 -0.9200
vn 0.1657 -0.5444 -0.8223
vn 0.8816 -0.1857 -0.4339
vn 0.8762 -0.1717 -0.4503
vn -0.1748 -0.8929 -0.4150
vn 0.5746 -0.5676 -0.5896
vn -0.1472 -0.2135 -0.9658
vn -0.5746 -0.5676 -0.5896
vn -0.3738 -0.1182 -0.9200
vn 0.7599 -0.4212 -0.4951
vn 0.3484 -0.2280 -0.9092
vn 0.8236 -0.0570 -0.5644
vn 0.6599 0.0400 -0.7503
vn 0.7611 -0.4141 -0.4992
vn -0.1876 -0.8822 -0.4319
vn 0.6310 -0.7713 -0.0833
vn 0.6011 -0.7758 0.1920
vn -0.1657 -0.5444 -0.8223
vn 0.0457 -0.5038 -0.8626
vn -0.1674 -0.5425 -0.8232
vn -0.7611 -0.4141 -0.4992
vn -0.3972 -0.1110 -0.9110
vn -0.3484 -0.2280 -0.9092
vn 0.8703 0.0653 -0.4881
vn 0.8276 0.4387 -0.3501
vn 0.6607 0.3788 -0.6480
vn 0.6890 0.3532 -0.6328
vn -0.8276 0.4387 -0.3501
vn 0.1519 -0.7146 0.6828
vn -0.6513 -0.2168 -0.7272
vn -0.6161 -0.0560 -0.7857
vn 0.8524 0.3981 -0.3390
vn 0.8067 0.4697 -0.3586
vn -0.6890 0.3532 -0.6328
vn -0.6599 0.0400 -0.7503
vn -0.6607 0.3788 -0.6480
vn -0.7293 -0.2617 0.6321
vn -0.8762 -0.1717 -0.4503
vn -0.9331 0.0618 -0.3542
vn -0.8816 -0.1857 -0.4339
vn -0.9521 -0.0426 0.3030
vn 0.6865 0.6996 -0.1982
vn 0.5180 0.7984 -0.3071
vn 0.5627 0.7990 -0.2119
vn -0.5180 0.7984 -0.3071
vn -0.8236 -0.0570 -0.5644
vn -0.8067 0.4697 -0.3586
vn -0.8703 0.0653 -0.4881
vn -0.8524 0.3981 -0.3390
vn -0.7599 -0.4212 -0.4951
vn 0.4334 0.8997 -0.0524
vn -0.6865 0.6996 -0.1982
vn -0.5627 0.7990 -0.2119
vn -0.4334 0.8997 -0.0524
# 68 vertex normals

vt 0.9700 0.9800 0.0000
vt 0.5000 0.9400 0.0000
vt 0.3100 0.9700 0.0000
vt 0.6200 0.9100 0.0000
vt 0.2200 0.8900 0.0000
vt 0.6600 0.8400 0.0000
vt 0.2800 0.7800 0.0000
vt 0.6900 0.7700 0.0000
vt 0.5000 0.7300 0.0000
vt 0.0300 0.8900 0.0000
vt 0.0300 0.9800 0.0000
vt 0.4400 0.5200 0.0000
vt 0.0300 0.8000 0.0000
vt 0.0900 0.4500 0.0000
vt 0.0300 0.4700 0.0000
vt 0.7800 0.5500 0.0000
vt 0.0300 0.3800 0.0000
vt 0.8700 0.4400 0.0000
vt 0.1600 0.3800 0.0000
vt 0.4700 0.3800 0.0000
vt 0.8700 0.3600 0.0000
vt 0.0300 0.2800 0.0000
vt 0.2500 0.2500 0.0000
vt 0.7200 0.1900 0.0000
vt 0.4100 0.0600 0.0000
vt 0.0300 0.1600 0.0000
vt 0.0300 0.0200 0.0000
# 27 texture coords

g node_017AD52B
usemtl material_027CC695
s off
f 84/42/143 85/43/143 86/44/143 
f 84/42/144 87/45/144 85/43/144 
f 84/42/145 86/44/145 88/46/145 
f 84/42/146 89/47/146 87/45/146 
f 84/42/147 88/46/147 90/48/147 
f 84/42/148 91/49/148 89/47/148 
f 84/42/149 90/48/149 92/50/149 
f 84/42/150 92/50/150 91/49/150 
f 86/44/151 93/51/151 88/46/151 
f 86/44/152 94/52/152 93/51/152 
f 90/48/153 95/53/153 92/50/153 
f 90/48/154 88/46/154 96/54/154 
f 90/48/155 97/55/155 95/53/155 
f 90/48/156 96/54/156 98/56/156 
f 90/48/157 98/56/157 97/55/157 
f 88/46/158 93/51/158 96/54/158 
f 91/49/159 92/50/159 99/57/159 
f 92/50/160 95/53/160 99/57/160 
f 94/52/161 100/44/161 93/51/161 
f 98/56/162 101/58/162 97/55/162 
f 98/56/163 96/54/163 102/48/163 
f 98/56/164 103/55/164 101/58/164 
f 98/56/165 102/48/165 103/55/165 
f 95/53/166 104/59/166 99/57/166 
f 95/53/167 97/55/167 105/60/167 
f 95/53/168 106/61/168 104/59/168 
f 95/53/169 105/60/169 106/61/169 
f 97/55/170 101/58/170 105/60/170 
f 100/44/171 107/46/171 93/51/171 
f 100/44/172 108/42/172 107/46/172 
f 100/44/173 109/43/173 108/42/173 
f 107/46/174 96/54/174 93/51/174 
f 107/46/175 108/42/175 102/48/175 
f 107/46/176 102/48/176 96/54/176 
f 103/55/177 110/60/177 101/58/177 
f 103/55/178 102/48/178 111/53/178 
f 103/55/179 111/53/179 110/60/179 
f 104/59/180 106/61/180 112/62/180 
f 105/60/181 101/58/181 113/63/181 
f 105/60/182 114/64/182 106/61/182 
f 105/60/183 113/63/183 114/64/183 
f 101/58/184 110/60/184 113/63/184 
f 109/43/185 115/45/185 108/42/185 
f 102/48/186 116/50/186 111/53/186 
f 102/48/187 108/42/187 116/50/187 
f 112/62/188 106/61/188 117/65/188 
f 106/61/189 114/64/189 117/65/189 
f 110/60/190 118/64/190 113/63/190 
f 110/60/191 111/53/191 119/61/191 
f 110/60/192 119/61/192 118/64/192 
f 115/45/193 120/47/193 108/42/193 
f 116/50/194 121/57/194 111/53/194 
f 116/50/195 108/42/195 122/49/195 
f 116/50/196 122/49/196 121/57/196 
f 122/49/197 108/42/197 120/47/197 
f 114/64/198 123/66/198 117/65/198 
f 114/64/199 113/63/199 124/67/199 
f 114/64/200 124/67/200 123/66/200 
f 113/63/201 118/64/201 124/67/201 
f 119/61/202 111/53/202 125/59/202 
f 119/61/203 126/65/203 118/64/203 
f 119/61/204 125/59/204 127/62/204 
f 119/61/205 127/62/205 126/65/205 
f 125/59/206 111/53/206 121/57/206 
f 123/66/207 124/67/207 128/68/207 
f 118/64/208 126/65/208 129/66/208 
f 118/64/209 129/66/209 124/67/209 
f 124/67/210 129/66/210 128/68/210 
# 0 polygons - 68 triangles

