# Wavefront OBJ file
# Exported by Misfit Model 3D 1.2.4
# Fri Aug 26 01:08:52 2016

mtllib CookieBearStand.mtl

# 70 Vertices
v -3.452131 -0.018319 2.143523
v 3.305453 -0.018319 2.143523
v -3.452131 -0.018319 -1.839724
v 3.305453 -0.018319 -1.839724
v -3.452131 3.031944 2.143523
v 3.305453 3.031944 2.143523
v -3.452131 4.870203 -1.839724
v 3.305453 4.870203 -1.839724
v -3.375628 3.031944 2.048712
v 3.22895 3.031944 2.048712
v -3.375628 4.870203 -1.744914
v 3.22895 4.870203 -1.744914
v -3.291285 2.509635 2.048712
v 3.144607 2.509635 2.048712
v -3.291285 4.347894 -1.744914
v 3.144607 4.347894 -1.744914
v 3.305453 7.770796 -1.839724
v -3.452131 7.770796 -1.839724
v -3.375628 7.770796 -1.744914
v 3.22895 7.770796 -1.744914
v 3.305453 -0.018319 2.143523
v 3.305453 3.031944 2.143523
v 3.305453 -0.018319 -1.839724
v 3.305453 4.870203 -1.839724
v -3.452131 -0.018319 -1.839724
v -3.452131 3.031944 2.143523
v -3.452131 -0.018319 2.143523
v -3.452131 4.870203 -1.839724
v 3.22895 3.031944 2.048712
v -3.375628 3.031944 2.048712
v 3.144607 2.509635 2.048712
v 3.22895 4.870203 -1.744914
v -3.375628 4.870203 -1.744914
v 3.144607 4.347894 -1.744914
v -3.291285 2.509635 2.048712
v -3.291285 4.347894 -1.744914
v 3.144607 4.347894 -1.744914
v -3.291285 2.509635 2.048712
v -3.291285 4.347894 -1.744914
v 3.144607 2.509635 2.048712
v -3.452131 7.770796 -1.839724
v 3.305453 7.770796 -1.839724
v -3.452131 4.870203 -1.839724
v -3.452131 7.770796 -1.839724
v 3.305453 7.770796 -1.839724
v 3.305453 4.870203 -1.839724
v -3.452131 3.031944 2.143523
v 3.305453 3.031944 2.143523
v 3.305453 3.031944 2.143523
v 3.305453 4.870203 -1.839724
v 3.22895 4.870203 -1.744914
v 3.305453 3.031944 2.143523
v -3.452131 4.870203 -1.839724
v -3.452131 3.031944 2.143523
v -3.375628 3.031944 2.048712
v -3.452131 4.870203 -1.839724
v -3.375628 3.031944 2.048712
v 3.22895 3.031944 2.048712
v 3.22895 3.031944 2.048712
v 3.22895 4.870203 -1.744914
v 3.144607 4.347894 -1.744914
v 3.22895 3.031944 2.048712
v -3.375628 4.870203 -1.744914
v -3.375628 3.031944 2.048712
v -3.375628 7.770796 -1.744914
v -3.375628 4.870203 -1.744914
v 3.22895 7.770796 -1.744914
v -3.375628 7.770796 -1.744914
v 3.22895 4.870203 -1.744914
v 3.22895 7.770796 -1.744914

# 102 Texture Coordinates
vt 0.075236 0.125301
vt 0.091648 0.109216
vt 0.799869 0.128768
vt 0.783571 0.112524
vt 0.799869 0.128768
vt 0.091648 0.109216
vt 0.801415 0.129474
vt 0.78513 0.113211
vt 0.076795 0.125179
vt 0.09322 0.109112
vt 0.076795 0.125179
vt 0.78513 0.113211
vt 0.091648 0.109216
vt 0.102926 0.083083
vt 0.783571 0.112524
vt 0.794855 0.086391
vt 0.783571 0.112524
vt 0.102926 0.083083
vt 0.993295 0.992608
vt 0.992693 0.548564
vt 0.012131 0.993813
vt 0.012131 0.993813
vt 0.992693 0.548564
vt 0.011529 0.549768
vt 0.169133 0.368161
vt 0.075236 0.125301
vt 0.858462 0.280305
vt 0.858462 0.280305
vt 0.075236 0.125301
vt 0.799869 0.128768
vt 0.975023 0.482299
vt 0.96666 0.374107
vt 0.048177 0.487597
vt 0.048177 0.487597
vt 0.96666 0.374107
vt 0.039816 0.379404
vt 0.96666 0.374107
vt 0.988429 0.127956
vt 0.039816 0.379404
vt 0.039816 0.379404
vt 0.988429 0.127956
vt 0.061586 0.136272
vt 0.859483 0.281077
vt 0.801415 0.129474
vt 0.16985 0.368146
vt 0.16985 0.368146
vt 0.801415 0.129474
vt 0.076795 0.125179
vt 0.992693 0.548564
vt 0.981546 0.52372
vt 0.011529 0.549768
vt 0.011529 0.549768
vt 0.981546 0.52372
vt 0.022598 0.524895
vt 0.023846 0.117739
vt 0.034903 0.137564
vt 0.974128 0.109826
vt 0.974128 0.109826
vt 0.034903 0.137564
vt 0.963667 0.129828
vt 0.981546 0.52372
vt 0.969197 0.499406
vt 0.022598 0.524895
vt 0.022598 0.524895
vt 0.969197 0.499406
vt 0.034741 0.50055
vt 0.034903 0.137564
vt 0.03946 0.442175
vt 0.963667 0.129828
vt 0.963667 0.129828
vt 0.03946 0.442175
vt 0.968225 0.434439
vt 0.03946 0.442175
vt 0.05214 0.496927
vt 0.968225 0.434439
vt 0.968225 0.434439
vt 0.05214 0.496927
vt 0.957184 0.48939
vt 0.78513 0.113211
vt 0.796504 0.08709
vt 0.09322 0.109112
vt 0.09322 0.109112
vt 0.796504 0.08709
vt 0.104588 0.082992
vt 0.004695 0.004223
vt 0.004695 0.05088
vt 1.005292 0.004223
vt 1.005292 0.004223
vt 0.004695 0.05088
vt 1.005292 0.05088
vt 0.03946 0.442175
vt 0.034903 0.137564
vt 0.010707 0.442415
vt 0.010707 0.442415
vt 0.034903 0.137564
vt 0.006148 0.137804
vt 0.99698 0.434199
vt 0.992419 0.129588
vt 0.968225 0.434439
vt 0.968225 0.434439
vt 0.992419 0.129588
vt 0.963667 0.129828

# 102 Vertex Normals
vn 0.460863 0.805801 0.371875
vn 0.460863 0.805801 0.371875
vn 0.460863 0.805801 0.371875
vn -0.475436 0.7917 0.38363
vn -0.475436 0.7917 0.38363
vn -0.475436 0.7917 0.38363
vn 0.460869 0.805797 0.371874
vn 0.460869 0.805797 0.371874
vn 0.460869 0.805797 0.371874
vn -0.475433 0.791701 0.383631
vn -0.475433 0.791701 0.383631
vn -0.475433 0.791701 0.383631
vn -0.984279 0.158942 0.077018
vn -0.984279 0.158942 0.077018
vn -0.984279 0.158942 0.077018
vn -0.984279 0.158942 0.077018
vn -0.984279 0.158942 0.077018
vn -0.984279 0.158942 0.077018
vn 0.0 0.0 1.0
vn 0.0 -0.0 1.0
vn 0.0 -0.0 1.0
vn 0.0 -0.0 1.0
vn 0.0 -0.0 1.0
vn 0.0 -0.0 1.0
vn 1.0 0.0 0.0
vn 1.0 0.0 0.0
vn 1.0 0.0 0.0
vn 1.0 0.0 0.0
vn 1.0 0.0 0.0
vn 1.0 0.0 0.0
vn 0.0 0.0 -1.0
vn 0.0 0.0 -1.0
vn 0.0 0.0 -1.0
vn 0.0 0.0 -1.0
vn 0.0 0.0 -1.0
vn 0.0 0.0 -1.0
vn 0.0 0.0 -1.0
vn 0.0 0.0 -1.0
vn 0.0 0.0 -1.0
vn 0.0 0.0 -1.0
vn 0.0 0.0 -1.0
vn 0.0 0.0 -1.0
vn -1.0 0.0 0.0
vn -1.0 0.0 0.0
vn -1.0 0.0 0.0
vn -1.0 0.0 0.0
vn -1.0 0.0 0.0
vn -1.0 0.0 0.0
vn -0.0 1.0 0.0
vn -0.0 1.0 0.0
vn -0.0 1.0 0.0
vn -0.0 1.0 0.0
vn -0.0 1.0 0.0
vn -0.0 1.0 0.0
vn 0.0 1.0 0.0
vn 0.0 1.0 0.0
vn 0.0 1.0 0.0
vn 0.0 1.0 0.0
vn 0.0 1.0 0.0
vn 0.0 1.0 0.0
vn 0.0 0.0 -1.0
vn 0.0 0.0 -1.0
vn 0.0 0.0 -1.0
vn 0.0 0.0 -1.0
vn 0.0 0.0 -1.0
vn 0.0 0.0 -1.0
vn 0.0 0.0 1.0
vn 0.0 0.0 1.0
vn 0.0 0.0 1.0
vn 0.0 0.0 1.0
vn 0.0 0.0 1.0
vn 0.0 -0.0 1.0
vn 0.0 0.0 1.0
vn 0.0 -0.0 1.0
vn 0.0 -0.0 1.0
vn 0.0 -0.0 1.0
vn 0.0 -0.0 1.0
vn 0.0 -0.0 1.0
vn 0.984279 0.158943 0.077018
vn 0.984279 0.158943 0.077018
vn 0.984279 0.158943 0.077018
vn 0.984279 0.158943 0.077018
vn 0.984279 0.158943 0.077018
vn 0.984279 0.158943 0.077018
vn -0.0 0.899914 0.436067
vn 0.0 0.899914 0.436067
vn 0.0 0.899914 0.436067
vn 0.0 0.899914 0.436067
vn 0.0 0.899914 0.436067
vn 0.0 0.899914 0.436067
vn -0.77824 0.0 0.627967
vn -0.77824 0.0 0.627967
vn -0.77824 0.0 0.627967
vn -0.77824 0.0 0.627967
vn -0.77824 0.0 0.627967
vn -0.77824 0.0 0.627967
vn 0.778239 0.0 0.627969
vn 0.778239 0.0 0.627969
vn 0.778239 0.0 0.627969
vn 0.778239 0.0 0.627969
vn 0.778239 0.0 0.627969
vn 0.778239 0.0 0.627969

# default, 34 grouped triangles

usemtl TEX_Bear_Stand
o default
g default

f 50/1/1 12/2/2 49/3/3
f 29/4/4 52/5/5 51/6/6
f 54/7/7 30/8/8 53/9/9
f 11/10/10 56/11/11 55/12/12
f 60/13/13 16/14/14 59/15/15
f 31/16/16 62/17/17 61/18/18
f 2/19/19 6/20/20 1/21/21
f 1/22/22 6/23/23 5/24/24
f 4/25/25 8/26/26 21/27/27
f 21/28/28 8/29/29 22/30/30
f 42/31/31 24/32/32 41/33/33
f 41/34/34 24/35/35 7/36/36
f 24/37/37 23/38/38 7/39/39
f 7/40/40 23/41/41 3/42/42
f 27/43/43 26/44/44 25/45/45
f 25/46/46 26/47/47 28/48/48
f 48/49/49 10/50/50 47/51/51
f 47/52/52 10/53/53 9/54/54
f 18/55/55 19/56/56 17/57/57
f 17/58/58 19/59/59 20/60/60
f 58/61/61 14/62/62 57/63/63
f 57/64/64 14/65/65 13/66/66
f 68/67/67 33/68/68 67/69/69
f 67/70/70 33/71/71 32/72/72
f 33/73/73 15/74/74 32/75/75
f 32/76/76 15/77/77 34/78/78
f 64/79/79 35/80/80 63/81/81
f 63/82/82 35/83/83 36/84/84
f 39/85/85 38/86/86 37/87/87
f 37/88/88 38/89/89 40/90/90
f 66/91/91 65/92/92 43/93/93
f 43/94/94 65/95/95 44/96/96
f 46/97/97 45/98/98 69/99/99
f 69/100/100 45/101/101 70/102/102
