# Wavefront OBJ file
# Exported by Misfit Model 3D 1.2.4
# Fri Aug 26 01:09:32 2016

mtllib GummyStand.mtl

# 74 Vertices
v -3.378792 -0.0 1.991624
v 3.378792 -0.0 1.991624
v -3.378792 0.0 -1.991624
v 3.378792 0.0 -1.991624
v -3.378792 3.050262 1.991624
v 3.378792 3.050262 1.991624
v -3.378792 4.888521 -1.991624
v 3.378792 4.888521 -1.991624
v -3.302289 3.050262 1.896813
v 3.302289 3.050262 1.896813
v -3.302289 4.888521 -1.896813
v 3.302289 4.888521 -1.896813
v -3.217946 2.527953 1.896813
v 3.217946 2.527953 1.896813
v -3.217946 4.366212 -1.896813
v 3.217946 4.366212 -1.896813
v 3.378792 8.674547 -1.991624
v -3.378792 8.674547 -1.991624
v -3.302289 8.674547 -1.896813
v 3.302289 8.674547 -1.896813
v 3.378792 -0.0 1.991624
v 3.378792 3.050262 1.991624
v 3.378792 0.0 -1.991624
v 3.378792 4.888521 -1.991624
v -3.378792 0.0 -1.991624
v -3.378792 3.050262 1.991624
v -3.378792 -0.0 1.991624
v -3.378792 4.888521 -1.991624
v -3.378792 3.050262 1.991624
v 3.378792 3.050262 1.991624
v 3.302289 3.050262 1.896813
v -3.302289 3.050262 1.896813
v 3.302289 3.050262 1.896813
v 3.302289 4.888521 -1.896813
v 3.217946 2.527953 1.896813
v 3.302289 4.888521 -1.896813
v -3.302289 4.888521 -1.896813
v 3.217946 4.366212 -1.896813
v -3.302289 4.888521 -1.896813
v -3.217946 2.527953 1.896813
v -3.302289 3.050262 1.896813
v -3.217946 4.366212 -1.896813
v 3.217946 4.366212 -1.896813
v -3.217946 2.527953 1.896813
v -3.217946 4.366212 -1.896813
v 3.217946 2.527953 1.896813
v -3.378792 8.674547 -1.991624
v 3.378792 8.674547 -1.991624
v -3.378792 4.888521 -1.991624
v -3.378792 8.674547 -1.991624
v 3.378792 8.674547 -1.991624
v 3.378792 4.888521 -1.991624
v 3.378792 3.050262 1.991624
v 3.378792 4.888521 -1.991624
v 3.302289 4.888521 -1.896813
v 3.378792 3.050262 1.991624
v -3.378792 4.888521 -1.991624
v -3.378792 3.050262 1.991624
v -3.302289 3.050262 1.896813
v -3.378792 4.888521 -1.991624
v -3.302289 3.050262 1.896813
v 3.302289 3.050262 1.896813
v 3.217946 4.366212 -1.896813
v 3.302289 3.050262 1.896813
v -3.302289 8.674547 -1.896813
v -3.302289 4.888521 -1.896813
v -3.302289 8.674547 -1.896813
v -3.378792 4.888521 -1.991624
v 3.302289 8.674547 -1.896813
v -3.302289 8.674547 -1.896813
v 3.302289 4.888521 -1.896813
v 3.378792 8.674547 -1.991624
v 3.302289 4.888521 -1.896813
v 3.302289 8.674547 -1.896813

# 102 Texture Coordinates
vt 0.191721 0.616735
vt 0.010898 0.616735
vt 0.747436 0.616735
vt 0.990851 0.616735
vt 0.747436 0.616735
vt 0.010898 0.616735
vt 0.747436 0.616735
vt 0.990851 0.616735
vt 0.191721 0.616735
vt 0.010898 0.616735
vt 0.191721 0.616735
vt 0.990851 0.616735
vt 0.010641 0.591734
vt 0.010641 0.540888
vt 0.981518 0.591734
vt 0.981518 0.540888
vt 0.981518 0.591734
vt 0.010641 0.540888
vt 0.034413 0.560279
vt 0.034866 0.036508
vt 0.005694 0.518551
vt 0.006145 0.070064
vt 0.005694 0.518551
vt 0.034866 0.036508
vt 0.990816 0.516244
vt 0.991265 0.067756
vt 0.962094 0.558107
vt 0.962546 0.034337
vt 0.962094 0.558107
vt 0.991265 0.067756
vt 0.997034 0.994334
vt 0.996431 0.610547
vt 0.014451 0.99549
vt 0.014451 0.99549
vt 0.996431 0.610547
vt 0.013847 0.611703
vt 0.191721 0.994908
vt 0.191721 0.616735
vt 0.747436 0.994908
vt 0.747436 0.994908
vt 0.191721 0.616735
vt 0.747436 0.616735
vt 0.006812 0.613526
vt 0.006812 0.984322
vt 0.987419 0.613526
vt 0.987419 0.613526
vt 0.006812 0.984322
vt 0.987419 0.984322
vt 0.006812 0.984322
vt 0.006812 0.99538
vt 0.987419 0.984322
vt 0.987419 0.984322
vt 0.006812 0.99538
vt 0.987419 0.99538
vt 0.747436 0.994908
vt 0.747436 0.616735
vt 0.191721 0.994908
vt 0.191721 0.994908
vt 0.747436 0.616735
vt 0.191721 0.616735
vt 0.986315 0.827814
vt 0.975343 0.813698
vt 0.020599 0.828498
vt 0.020599 0.828498
vt 0.975343 0.813698
vt 0.031494 0.814365
vt 0.024149 0.0407
vt 0.034866 0.036508
vt 0.973321 0.038482
vt 0.973321 0.038482
vt 0.034866 0.036508
vt 0.962546 0.034337
vt 0.975343 0.813698
vt 0.963189 0.7748
vt 0.031494 0.814365
vt 0.031494 0.814365
vt 0.963189 0.7748
vt 0.043446 0.77545
vt 0.034866 0.036508
vt 0.034413 0.560279
vt 0.962546 0.034337
vt 0.962546 0.034337
vt 0.034413 0.560279
vt 0.962094 0.558107
vt 0.034413 0.560279
vt 0.046178 0.599213
vt 0.962094 0.558107
vt 0.962094 0.558107
vt 0.046178 0.599213
vt 0.950165 0.597099
vt 0.981518 0.591734
vt 0.981518 0.540888
vt 0.010641 0.591734
vt 0.010641 0.591734
vt 0.981518 0.540888
vt 0.010641 0.540888
vt 0.007902 0.005982
vt 0.007902 0.025484
vt 0.995154 0.005982
vt 0.995154 0.005982
vt 0.007902 0.025484
vt 0.995154 0.025484

# 102 Vertex Normals
vn 0.460867 0.805799 0.371875
vn 0.460867 0.805799 0.371875
vn 0.460867 0.805799 0.371875
vn -0.475437 0.791699 0.38363
vn -0.475437 0.791699 0.38363
vn -0.475437 0.791699 0.38363
vn 0.460866 0.805799 0.371875
vn 0.460866 0.805799 0.371875
vn 0.460866 0.805799 0.371875
vn -0.475437 0.791699 0.38363
vn -0.475437 0.791699 0.38363
vn -0.475437 0.791699 0.38363
vn -0.984279 0.158942 0.077018
vn -0.984279 0.158942 0.077018
vn -0.984279 0.158942 0.077018
vn -0.984279 0.158942 0.077018
vn -0.984279 0.158942 0.077018
vn -0.984279 0.158942 0.077018
vn -0.778242 0.0 0.627964
vn -0.778242 0.0 0.627964
vn -0.778242 0.0 0.627964
vn -0.778242 0.0 0.627964
vn -0.778242 0.0 0.627964
vn -0.778242 0.0 0.627964
vn 0.778242 0.0 0.627964
vn 0.778242 0.0 0.627964
vn 0.778242 0.0 0.627964
vn 0.778242 0.0 0.627964
vn 0.778242 0.0 0.627964
vn 0.778242 0.0 0.627964
vn 0.0 0.0 1.0
vn 0.0 0.0 1.0
vn 0.0 0.0 1.0
vn 0.0 0.0 1.0
vn 0.0 0.0 1.0
vn 0.0 0.0 1.0
vn 1.0 0.0 -0.0
vn 1.0 0.0 -0.0
vn 1.0 0.0 -0.0
vn 1.0 0.0 -0.0
vn 1.0 0.0 -0.0
vn 1.0 0.0 -0.0
vn 0.0 0.0 -1.0
vn 0.0 -0.0 -1.0
vn 0.0 -0.0 -1.0
vn 0.0 -0.0 -1.0
vn 0.0 -0.0 -1.0
vn 0.0 -0.0 -1.0
vn 0.0 -0.0 -1.0
vn 0.0 -0.0 -1.0
vn 0.0 -0.0 -1.0
vn 0.0 -0.0 -1.0
vn 0.0 -0.0 -1.0
vn 0.0 -0.0 -1.0
vn -1.0 0.0 -0.0
vn -1.0 0.0 -0.0
vn -1.0 0.0 -0.0
vn -1.0 0.0 -0.0
vn -1.0 0.0 -0.0
vn -1.0 0.0 -0.0
vn -0.0 1.0 0.0
vn -0.0 1.0 0.0
vn -0.0 1.0 0.0
vn -0.0 1.0 0.0
vn -0.0 1.0 0.0
vn -0.0 1.0 0.0
vn 0.0 1.0 0.0
vn 0.0 1.0 0.0
vn 0.0 1.0 0.0
vn 0.0 1.0 0.0
vn 0.0 1.0 0.0
vn 0.0 1.0 0.0
vn 0.0 0.0 -1.0
vn 0.0 0.0 -1.0
vn 0.0 0.0 -1.0
vn 0.0 0.0 -1.0
vn 0.0 0.0 -1.0
vn 0.0 0.0 -1.0
vn 0.0 0.0 1.0
vn 0.0 0.0 1.0
vn 0.0 0.0 1.0
vn 0.0 0.0 1.0
vn 0.0 0.0 1.0
vn 0.0 0.0 1.0
vn 0.0 0.0 1.0
vn 0.0 0.0 1.0
vn 0.0 0.0 1.0
vn 0.0 0.0 1.0
vn 0.0 0.0 1.0
vn 0.0 0.0 1.0
vn 0.984279 0.158942 0.077018
vn 0.984279 0.158942 0.077018
vn 0.984279 0.158942 0.077018
vn 0.984279 0.158942 0.077018
vn 0.984279 0.158942 0.077018
vn 0.984279 0.158942 0.077018
vn 0.0 0.899914 0.436067
vn 0.0 0.899914 0.436067
vn 0.0 0.899914 0.436067
vn 0.0 0.899914 0.436067
vn 0.0 0.899914 0.436067
vn -0.0 0.899914 0.436067

# default, 34 grouped triangles

usemtl TEX_Gummy_Stand
o default
g default

f 54/1/1 12/2/2 53/3/3
f 31/4/4 56/5/5 55/6/6
f 58/7/7 32/8/8 57/9/9
f 11/10/10 60/11/11 59/12/12
f 34/13/13 16/14/14 33/15/15
f 35/16/16 64/17/17 63/18/18
f 66/19/19 65/20/20 49/21/21
f 50/22/22 68/23/23 67/24/24
f 52/25/25 51/26/26 71/27/27
f 74/28/28 73/29/29 72/30/30
f 2/31/31 6/32/32 1/33/33
f 1/34/34 6/35/35 5/36/36
f 4/37/37 8/38/38 21/39/39
f 21/40/40 8/41/41 22/42/42
f 48/43/43 24/44/44 47/45/45
f 47/46/46 24/47/47 7/48/48
f 24/49/49 23/50/50 7/51/51
f 7/52/52 23/53/53 3/54/54
f 27/55/55 26/56/56 25/57/57
f 25/58/58 26/59/59 28/60/60
f 30/61/61 10/62/62 29/63/63
f 29/64/64 10/65/65 9/66/66
f 18/67/67 19/68/68 17/69/69
f 17/70/70 19/71/71 20/72/72
f 62/73/73 14/74/74 61/75/75
f 61/76/76 14/77/77 13/78/78
f 70/79/79 37/80/80 69/81/81
f 69/82/82 37/83/83 36/84/84
f 37/85/85 15/86/86 36/87/87
f 36/88/88 15/89/89 38/90/90
f 41/91/91 40/92/92 39/93/93
f 39/94/94 40/95/95 42/96/96
f 45/97/97 44/98/98 43/99/99
f 43/100/100 44/101/101 46/102/102
